<svg width="33" height="33" viewBox="0 0 33 33" fill="none" xmlns="http://www.w3.org/2000/svg">
<g clip-path="url(#clip0_4_25)">
<path d="M32.2792 20.338C30.11 29.0401 21.2933 34.3301 12.6036 32.1607C3.90126 29.9916 -1.38866 21.1753 0.780658 12.4857C2.94985 3.78361 11.7537 -1.50631 20.4561 0.663006C29.1457 2.81951 34.4485 11.6358 32.2792 20.338Z" fill="url(#paint0_linear_4_25)"/>
<path d="M24.2596 14.3887C24.5767 12.2324 22.9405 11.0655 20.6827 10.2918L21.4184 7.36185L19.6427 6.91792L18.9324 9.77178C18.4631 9.65763 17.9811 9.54347 17.4991 9.442L18.2094 6.57546L16.4337 6.13152L15.7107 9.0488C15.3175 8.96002 14.937 8.87123 14.5691 8.78244V8.76976L12.1085 8.16093L11.6392 10.0635C11.6392 10.0635 12.9583 10.3679 12.9329 10.3806C13.6559 10.5582 13.7827 11.0402 13.7574 11.4207L12.9202 14.7565C12.971 14.7692 13.0344 14.7819 13.1105 14.8199C13.0471 14.8073 12.9837 14.7946 12.9202 14.7692L11.7533 19.4369C11.6645 19.6525 11.4362 19.9823 10.9416 19.8554C10.9542 19.8808 9.64782 19.5383 9.64782 19.5383L8.75995 21.5804L11.0811 22.1639C11.5123 22.278 11.9309 22.3795 12.3495 22.4937L11.6138 25.449L13.3895 25.8929L14.1252 22.963C14.6072 23.0898 15.0892 23.2166 15.5458 23.3308L14.8228 26.2481L16.5986 26.692L17.3342 23.7367C20.3783 24.3074 22.6614 24.0791 23.6127 21.3267C24.3864 19.1198 23.5747 17.8387 21.9765 17.0016C23.1561 16.7352 24.0313 15.9615 24.2596 14.3887ZM20.1881 20.0964C19.6427 22.3034 15.9136 21.1111 14.7087 20.8067L15.6853 16.8874C16.8903 17.1918 20.7715 17.788 20.1881 20.0964ZM20.7462 14.3506C20.2388 16.3674 17.144 15.34 16.1419 15.0863L17.0298 11.5348C18.0318 11.7885 21.2662 12.2578 20.7462 14.3506Z" fill="white"/>
</g>
<defs>
<linearGradient id="paint0_linear_4_25" x1="16.5208" y1="0.168805" x2="16.5208" y2="32.6439" gradientUnits="userSpaceOnUse">
<stop stop-color="#F9AA4B"/>
<stop offset="1" stop-color="#F7931A"/>
</linearGradient>
<clipPath id="clip0_4_25">
<rect width="32.4706" height="32.4706" fill="white" transform="translate(0.294128 0.176468)"/>
</clipPath>
</defs>
</svg>
