<svg width="41" height="57" viewBox="0 0 41 57" fill="none" xmlns="http://www.w3.org/2000/svg">
<path d="M37.4762 17.8155C36.9328 11.6861 31.7287 9.53294 25.0926 8.86043L25.1821 0.335384L20.07 0.258771L19.9998 8.55836C18.6509 8.54682 17.2674 8.54346 15.8922 8.57494L15.9541 0.2405L10.842 0.163886L10.7787 8.64591C9.65293 8.65509 8.56161 8.6561 7.50473 8.64894L7.49647 8.61409L0.416663 8.52535L0.38139 14.0557C0.38139 14.0557 4.16244 14.0429 4.1018 14.0941C6.1811 14.1166 6.83957 15.3594 7.01854 16.4213L6.91788 26.1271C7.06394 26.1293 7.24445 26.1233 7.47594 26.1788C7.29542 26.1848 7.11492 26.1908 6.92614 26.1619L6.79735 39.7397C6.69666 40.3894 6.29139 41.4426 4.86523 41.4125C4.91621 41.4741 1.14482 41.3742 1.14482 41.3742L0.0635983 47.5574L6.74793 47.6662C7.99358 47.7023 9.19651 47.7116 10.4077 47.7558L10.3348 56.3506L15.4469 56.4272L15.5364 47.9021C16.9281 47.9404 18.3198 47.9786 19.6343 47.9983L19.571 56.4803L24.6832 56.5569L24.7561 47.9622C33.3958 47.5707 39.448 45.4734 40.2388 37.2974C40.9025 30.7346 37.8633 27.7369 32.9773 26.4655C36.0076 24.9741 37.8806 22.2845 37.4762 17.8155ZM30.1359 36.1215C30.0923 42.5373 19.1874 41.6619 15.7164 41.6012L15.816 30.2024C19.287 30.2631 30.2169 29.4023 30.1359 36.1215ZM27.9089 19.9731C27.8446 25.8416 18.7697 25.011 15.8829 24.959L15.9809 14.6281C18.8677 14.68 27.958 13.8872 27.9089 19.9731Z" fill="#9E6FCD"/>
</svg>
