<svg width="33" height="33" viewBox="0 0 33 33" fill="none" xmlns="http://www.w3.org/2000/svg">
<circle cx="16" cy="16" r="15" fill="#8247E5"/>
<path d="M21.9008 12.5015C21.517 12.2878 21.0235 12.2878 20.5849 12.5015L17.5144 14.2641L15.4308 15.3858L12.4151 17.1484C12.0313 17.362 11.5379 17.362 11.0992 17.1484L8.74151 15.7596C8.3577 15.546 8.08355 15.1187 8.08355 14.638V11.9674C8.08355 11.5401 8.30287 11.1128 8.74151 10.8457L11.0992 9.51039C11.483 9.29674 11.9765 9.29674 12.4151 9.51039L14.7728 10.8991C15.1567 11.1128 15.4308 11.5401 15.4308 12.0208V13.7834L17.5144 12.6083V10.7923C17.5144 10.365 17.295 9.93769 16.8564 9.67062L12.47 7.16024C12.0862 6.94659 11.5927 6.94659 11.154 7.16024L6.65796 9.72404C6.21932 9.93769 6 10.365 6 10.7923V15.8131C6 16.2404 6.21932 16.6677 6.65796 16.9347L11.0992 19.4451C11.483 19.6588 11.9765 19.6588 12.4151 19.4451L15.4308 17.7359L17.5144 16.5608L20.53 14.8516C20.9138 14.638 21.4073 14.638 21.846 14.8516L24.2037 16.1869C24.5875 16.4006 24.8616 16.8279 24.8616 17.3086V19.9792C24.8616 20.4065 24.6423 20.8338 24.2037 21.1009L21.9008 22.4362C21.517 22.6499 21.0235 22.6499 20.5849 22.4362L18.2272 21.1009C17.8433 20.8872 17.5692 20.4599 17.5692 19.9792V18.27L15.4856 19.4451V21.2077C15.4856 21.635 15.705 22.0623 16.1436 22.3294L20.5849 24.8398C20.9687 25.0534 21.4621 25.0534 21.9008 24.8398L26.342 22.3294C26.7258 22.1157 27 21.6884 27 21.2077V16.1335C27 15.7062 26.7807 15.2789 26.342 15.0119L21.9008 12.5015Z" fill="#FDFAFF"/>
</svg>
