<svg width="19" height="18" viewBox="0 0 19 18" fill="none" xmlns="http://www.w3.org/2000/svg">
<path d="M1.574 0.150478L18.1207 8.30369C18.211 8.34816 18.2869 8.41699 18.3401 8.50241C18.3932 8.58782 18.4214 8.68641 18.4214 8.787C18.4214 8.88759 18.3932 8.98617 18.3401 9.07159C18.2869 9.15701 18.211 9.22584 18.1207 9.27031L1.57292 17.4235C1.48021 17.4691 1.37637 17.487 1.27376 17.4752C1.17115 17.4634 1.0741 17.4223 0.99416 17.3569C0.914221 17.2915 0.854764 17.2045 0.822873 17.1063C0.790982 17.008 0.787999 16.9027 0.814281 16.8028L2.45333 10.6119C2.4799 10.5118 2.5348 10.4214 2.61144 10.3516C2.68808 10.2818 2.78322 10.2357 2.88545 10.2186L10.3005 8.98258C10.3447 8.97527 10.3863 8.95705 10.4217 8.92958C10.4571 8.90211 10.4851 8.86625 10.5031 8.82525L10.5225 8.7606C10.5325 8.70067 10.5221 8.6391 10.4927 8.58589C10.4634 8.53268 10.4169 8.49095 10.3608 8.46749L10.3005 8.45025L2.8445 7.20776C2.74247 7.19051 2.64756 7.14425 2.57112 7.0745C2.49469 7.00475 2.43995 6.91446 2.41346 6.81443L0.814281 0.77226C0.787726 0.672301 0.790502 0.56681 0.822278 0.468385C0.854053 0.369961 0.913486 0.282761 0.993478 0.2172C1.07347 0.151638 1.17064 0.110484 1.27339 0.0986529C1.37614 0.0868217 1.48012 0.104813 1.57292 0.150478H1.574Z" fill="#9E6FCD"/>
</svg>
