<svg width="22" height="22" viewBox="0 0 22 22" fill="none" xmlns="http://www.w3.org/2000/svg">
<path d="M7.5625 4.125V2.06112C7.5625 1.87879 7.63493 1.70392 7.76386 1.57499C7.8928 1.44606 8.06766 1.37362 8.25 1.37362H13.75C13.9323 1.37362 14.1072 1.44606 14.2361 1.57499C14.3651 1.70392 14.4375 1.87879 14.4375 2.06112V4.125H19.9375C20.1198 4.125 20.2947 4.19743 20.4236 4.32636C20.5526 4.4553 20.625 4.63016 20.625 4.8125C20.625 4.99484 20.5526 5.1697 20.4236 5.29864C20.2947 5.42757 20.1198 5.5 19.9375 5.5H2.0625C1.88016 5.5 1.7053 5.42757 1.57636 5.29864C1.44743 5.1697 1.375 4.99484 1.375 4.8125C1.375 4.63016 1.44743 4.4553 1.57636 4.32636C1.7053 4.19743 1.88016 4.125 2.0625 4.125H7.5625ZM8.9375 4.125H13.0625V2.75H8.9375V4.125ZM4.125 20.625C3.94266 20.625 3.7678 20.5526 3.63886 20.4236C3.50993 20.2947 3.4375 20.1198 3.4375 19.9375V5.5H18.5625V19.9375C18.5625 20.1198 18.4901 20.2947 18.3611 20.4236C18.2322 20.5526 18.0573 20.625 17.875 20.625H4.125ZM8.9375 16.5C9.11984 16.5 9.2947 16.4276 9.42364 16.2986C9.55257 16.1697 9.625 15.9948 9.625 15.8125V8.9375C9.625 8.75516 9.55257 8.5803 9.42364 8.45136C9.2947 8.32243 9.11984 8.25 8.9375 8.25C8.75516 8.25 8.5803 8.32243 8.45136 8.45136C8.32243 8.5803 8.25 8.75516 8.25 8.9375V15.8125C8.25 15.9948 8.32243 16.1697 8.45136 16.2986C8.5803 16.4276 8.75516 16.5 8.9375 16.5ZM13.0625 16.5C13.2448 16.5 13.4197 16.4276 13.5486 16.2986C13.6776 16.1697 13.75 15.9948 13.75 15.8125V8.9375C13.75 8.75516 13.6776 8.5803 13.5486 8.45136C13.4197 8.32243 13.2448 8.25 13.0625 8.25C12.8802 8.25 12.7053 8.32243 12.5764 8.45136C12.4474 8.5803 12.375 8.75516 12.375 8.9375V15.8125C12.375 15.9948 12.4474 16.1697 12.5764 16.2986C12.7053 16.4276 12.8802 16.5 13.0625 16.5Z" fill="#F24E1E"/>
</svg>
